<svg xmlns="http://www.w3.org/2000/svg" viewBox="0 0 1200 720" role="img" aria-labelledby="title desc">
  <title id="title">Vista previa de Gastos Operativos</title>
  <desc id="desc">Mockup visual de la hoja Gastos Operativos de EscalaMargen.</desc>
  <rect width="1200" height="720" fill="#0b1220"/>
  <rect x="18" y="18" width="1164" height="64" rx="12" fill="#101a2d" stroke="#3af2a1" stroke-width="2"/>
  <text x="600" y="58" fill="#ffffff" font-size="28" font-family="Arial, Helvetica, sans-serif" font-weight="700" text-anchor="middle">EscalaMargen | Gastos Operativos</text>
  <text x="600" y="104" fill="#d8e2f0" font-size="14" font-family="Arial, Helvetica, sans-serif" text-anchor="middle">Todos los valores en moneda base (COP)</text>

  <rect x="18" y="126" width="1164" height="46" fill="#101a2d"/>
  <g fill="#ffffff" font-size="13" font-family="Arial, Helvetica, sans-serif" font-weight="700" text-anchor="middle">
    <text x="175" y="155">Concepto</text>
    <text x="445" y="155">Costo Mensual</text>
    <text x="645" y="155">Categoría</text>
    <text x="930" y="155">Impacto</text>
  </g>

  <g stroke="#334155" stroke-width="1">
    <line x1="18" y1="172" x2="1182" y2="172"/>
    <line x1="330" y1="126" x2="330" y2="690"/>
    <line x1="560" y1="126" x2="560" y2="690"/>
    <line x1="750" y1="126" x2="750" y2="690"/>
  </g>

  <g fill="#ffffff" font-size="14" font-family="Arial, Helvetica, sans-serif">
    <text x="40" y="203">Nómina / equipo</text>
    <text x="40" y="245">Shopify / plataforma</text>
    <text x="40" y="287">Apps y suscripciones</text>
    <text x="40" y="329">Contador / administración</text>
    <text x="40" y="371">Bodegaje / almacenamiento</text>
    <text x="40" y="413">Dominio y hosting</text>
    <text x="40" y="455">Herramientas CRO / email</text>
    <text x="40" y="497">Otros gastos fijos</text>
    <text x="40" y="554" font-weight="700">Total mensual</text>
    <text x="40" y="596" font-weight="700">Total anual</text>

    <text x="470" y="203">0,00</text>
    <text x="470" y="245">0,00</text>
    <text x="470" y="287">0,00</text>
    <text x="470" y="329">0,00</text>
    <text x="470" y="371">0,00</text>
    <text x="470" y="413">0,00</text>
    <text x="470" y="455">0,00</text>
    <text x="470" y="497">0,00</text>
    <text x="470" y="554" font-weight="700">0,00</text>
    <text x="470" y="596" font-weight="700">0,00</text>

    <text x="618" y="203">Fijo</text>
    <text x="618" y="245">Fijo</text>
    <text x="618" y="287">Fijo</text>
    <text x="618" y="329">Fijo</text>
    <text x="618" y="371">Fijo</text>
    <text x="618" y="413">Fijo</text>
    <text x="618" y="455">Fijo</text>
    <text x="618" y="497">Fijo</text>
    <text x="598" y="554" font-weight="700">Fijo</text>
  </g>

  <g fill="#ffffff" font-size="13" font-family="Arial, Helvetica, sans-serif">
    <text x="780" y="203">Se descuenta del beneficio real y del flujo.</text>
    <text x="780" y="245">Se descuenta del beneficio real y del flujo.</text>
    <text x="780" y="287">Se descuenta del beneficio real y del flujo.</text>
    <text x="780" y="329">Se descuenta del beneficio real y del flujo.</text>
    <text x="780" y="371">Se descuenta del beneficio real y del flujo.</text>
    <text x="780" y="413">Se descuenta del beneficio real y del flujo.</text>
    <text x="780" y="455">Se descuenta del beneficio real y del flujo.</text>
    <text x="780" y="497">Se descuenta del beneficio real y del flujo.</text>
    <text x="780" y="554" font-weight="700">Base para utilidad real</text>
  </g>

  <g stroke="#334155" stroke-width="1">
    <line x1="18" y1="214" x2="1182" y2="214"/>
    <line x1="18" y1="256" x2="1182" y2="256"/>
    <line x1="18" y1="298" x2="1182" y2="298"/>
    <line x1="18" y1="340" x2="1182" y2="340"/>
    <line x1="18" y1="382" x2="1182" y2="382"/>
    <line x1="18" y1="424" x2="1182" y2="424"/>
    <line x1="18" y1="466" x2="1182" y2="466"/>
    <line x1="18" y1="508" x2="1182" y2="508"/>
    <line x1="18" y1="550" x2="1182" y2="550"/>
    <line x1="18" y1="592" x2="1182" y2="592"/>
  </g>
</svg>
