<svg xmlns="http://www.w3.org/2000/svg" viewBox="0 0 1200 720" role="img" aria-labelledby="title desc">
  <title id="title">Vista previa de Control Diario</title>
  <desc id="desc">Mockup visual de la hoja Control Diario de EscalaMargen.</desc>
  <rect width="1200" height="720" fill="#0b1220"/>
  <rect x="18" y="18" width="1164" height="64" rx="12" fill="#101a2d" stroke="#3af2a1" stroke-width="2"/>
  <text x="600" y="58" fill="#ffffff" font-size="28" font-family="Arial, Helvetica, sans-serif" font-weight="700" text-anchor="middle">EscalaMargen | Control Diario</text>
  <text x="600" y="104" fill="#d8e2f0" font-size="14" font-family="Arial, Helvetica, sans-serif" text-anchor="middle">Moneda base activa: Valor - Descripcion (COP)</text>

  <rect x="18" y="126" width="1164" height="46" fill="#101a2d"/>
  <g fill="#ffffff" font-size="13" font-family="Arial, Helvetica, sans-serif" font-weight="700" text-anchor="middle">
    <text x="90" y="155">Dia</text>
    <text x="280" y="155">Gasto Meta Ads</text>
    <text x="530" y="155">Gasto Google Ads</text>
    <text x="780" y="155">Ventas del Dia</text>
    <text x="1030" y="155">Beneficio del Dia</text>
  </g>

  <g stroke="#334155" stroke-width="1">
    <line x1="18" y1="172" x2="1182" y2="172"/>
    <line x1="130" y1="126" x2="130" y2="690"/>
    <line x1="390" y1="126" x2="390" y2="690"/>
    <line x1="650" y1="126" x2="650" y2="690"/>
    <line x1="910" y1="126" x2="910" y2="690"/>
  </g>

  <rect x="19" y="173" width="1162" height="40" fill="#14314a"/>
  <g fill="#ffffff" font-size="14" font-family="Arial, Helvetica, sans-serif">
    <text x="72" y="198">1</text>
    <text x="230" y="198">75.000,00</text>
    <text x="485" y="198">25.000,00</text>
    <text x="735" y="198">420.000,00</text>
    <text x="985" y="198">320.000,00</text>
  </g>

  <g fill="#dbe4f2" font-size="13" font-family="Arial, Helvetica, sans-serif">
    <text x="68" y="240">2</text>
    <text x="68" y="278">3</text>
    <text x="68" y="316">4</text>
    <text x="68" y="354">5</text>
    <text x="68" y="392">6</text>
    <text x="68" y="430">7</text>
    <text x="68" y="468">8</text>
    <text x="68" y="506">9</text>
    <text x="62" y="544">10</text>
    <text x="62" y="582">11</text>
    <text x="62" y="620">12</text>
    <text x="62" y="658">13</text>
  </g>

  <g stroke="#334155" stroke-width="1">
    <line x1="18" y1="213" x2="1182" y2="213"/>
    <line x1="18" y1="251" x2="1182" y2="251"/>
    <line x1="18" y1="289" x2="1182" y2="289"/>
    <line x1="18" y1="327" x2="1182" y2="327"/>
    <line x1="18" y1="365" x2="1182" y2="365"/>
    <line x1="18" y1="403" x2="1182" y2="403"/>
    <line x1="18" y1="441" x2="1182" y2="441"/>
    <line x1="18" y1="479" x2="1182" y2="479"/>
    <line x1="18" y1="517" x2="1182" y2="517"/>
    <line x1="18" y1="555" x2="1182" y2="555"/>
    <line x1="18" y1="593" x2="1182" y2="593"/>
    <line x1="18" y1="631" x2="1182" y2="631"/>
    <line x1="18" y1="669" x2="1182" y2="669"/>
  </g>
</svg>
